<svg width="116" height="121" viewBox="0 0 116 121" fill="none" xmlns="http://www.w3.org/2000/svg">
<path fill-rule="evenodd" clip-rule="evenodd" d="M58.7071 0.292889L65.0711 6.65685C65.4616 7.04737 65.4616 7.68054 65.0711 8.07106C64.6806 8.46159 64.0474 8.46159 63.6569 8.07106L59 3.41421V21H57V3.41421L52.3432 8.07106C51.9527 8.46159 51.3195 8.46159 50.929 8.07106C50.5384 7.68054 50.5384 7.04737 50.929 6.65685L57.2929 0.292889C57.6834 -0.0976353 58.3166 -0.0976353 58.7071 0.292889ZM65.0711 56.6569L58.7071 50.2929C58.3166 49.9024 57.6834 49.9024 57.2929 50.2929L50.929 56.6569C50.5384 57.0474 50.5384 57.6805 50.929 58.0711C51.3195 58.4616 51.9527 58.4616 52.3432 58.0711L57 53.4142V71H59V53.4142L63.6569 58.0711C64.0474 58.4616 64.6806 58.4616 65.0711 58.0711C65.4616 57.6805 65.4616 57.0474 65.0711 56.6569ZM65.0711 106.657L58.7071 100.293C58.3166 99.9024 57.6834 99.9024 57.2929 100.293L50.929 106.657C50.5384 107.047 50.5384 107.681 50.929 108.071C51.3195 108.462 51.9527 108.462 52.3432 108.071L57 103.414V121H59V103.414L63.6569 108.071C64.0474 108.462 64.6806 108.462 65.0711 108.071C65.4616 107.681 65.4616 107.047 65.0711 106.657ZM108.707 50.2929L115.071 56.6569C115.462 57.0474 115.462 57.6805 115.071 58.0711C114.681 58.4616 114.047 58.4616 113.657 58.0711L109 53.4142V71H107V53.4142L102.343 58.0711C101.953 58.4616 101.319 58.4616 100.929 58.0711C100.538 57.6805 100.538 57.0474 100.929 56.6569L107.293 50.2929C107.683 49.9024 108.317 49.9024 108.707 50.2929ZM115.071 106.657L108.707 100.293C108.317 99.9024 107.683 99.9024 107.293 100.293L100.929 106.657C100.538 107.047 100.538 107.681 100.929 108.071C101.319 108.462 101.953 108.462 102.343 108.071L107 103.414V121H109V103.414L113.657 108.071C114.047 108.462 114.681 108.462 115.071 108.071C115.462 107.681 115.462 107.047 115.071 106.657ZM115.071 6.65685L108.707 0.292889C108.317 -0.0976353 107.683 -0.0976353 107.293 0.292889L100.929 6.65685C100.538 7.04737 100.538 7.68054 100.929 8.07106C101.319 8.46159 101.953 8.46159 102.343 8.07106L107 3.41421V21H109V3.41421L113.657 8.07106C114.047 8.46159 114.681 8.46159 115.071 8.07106C115.462 7.68054 115.462 7.04737 115.071 6.65685ZM8.70714 50.2929L15.0711 56.6569C15.4616 57.0474 15.4616 57.6805 15.0711 58.0711C14.6806 58.4616 14.0474 58.4616 13.6569 58.0711L9.00003 53.4142V71H7.00003V53.4142L2.34318 58.0711C1.95265 58.4616 1.31949 58.4616 0.928963 58.0711C0.538438 57.6805 0.538438 57.0474 0.928963 56.6569L7.29292 50.2929C7.68345 49.9024 8.31661 49.9024 8.70714 50.2929ZM15.0711 106.657L8.70714 100.293C8.31661 99.9024 7.68345 99.9024 7.29292 100.293L0.928963 106.657C0.538438 107.047 0.538438 107.681 0.928963 108.071C1.31949 108.462 1.95265 108.462 2.34318 108.071L7.00003 103.414V121H9.00003V103.414L13.6569 108.071C14.0474 108.462 14.6806 108.462 15.0711 108.071C15.4616 107.681 15.4616 107.047 15.0711 106.657ZM8.70714 0.292889L15.0711 6.65685C15.4616 7.04737 15.4616 7.68054 15.0711 8.07106C14.6806 8.46159 14.0474 8.46159 13.6569 8.07106L9.00003 3.41421V21H7.00003V3.41421L2.34318 8.07106C1.95265 8.46159 1.31949 8.46159 0.928963 8.07106C0.538438 7.68054 0.538438 7.04737 0.928963 6.65685L7.29292 0.292889C7.68345 -0.0976353 8.31661 -0.0976353 8.70714 0.292889Z" fill="white"/>
</svg>
