<svg width="50" height="50" viewBox="0 0 50 50" fill="none" xmlns="http://www.w3.org/2000/svg">
<path d="M50 25C50 38.8071 38.8071 50 25 50C11.1929 50 0 38.8071 0 25C0 11.1929 11.1929 0 25 0C38.8071 0 50 11.1929 50 25Z" fill="#47493C"/>
<path d="M25.9318 17.4545H29.8239V27.4261C29.8191 28.3731 29.58 29.2064 29.1065 29.9261C28.6378 30.6411 27.9891 31.1998 27.1605 31.6023C26.3366 32 25.3873 32.1989 24.3125 32.1989C23.3797 32.1989 22.5275 32.0379 21.7557 31.7159C20.9839 31.3892 20.3684 30.8778 19.9091 30.1818C19.4498 29.4811 19.2225 28.572 19.2273 27.4545H23.1761C23.1903 27.8191 23.2519 28.1269 23.3608 28.3778C23.4744 28.6288 23.6307 28.8182 23.8295 28.946C24.0331 29.0691 24.2794 29.1307 24.5682 29.1307C24.8617 29.1307 25.108 29.0668 25.3068 28.9389C25.5104 28.8111 25.6643 28.6217 25.7685 28.3707C25.8726 28.1151 25.9271 27.8002 25.9318 27.4261V17.4545Z" fill="white"/>
</svg>
